<svg width="64" height="64" viewBox="0 0 64 64" fill="none" xmlns="http://www.w3.org/2000/svg">
<path d="M55.8 64H8.3C3.7 64 0 60.3 0 55.8V8.3C0 3.7 3.7 0 8.3 0H55.8C60.3 0 64 3.7 64 8.3V55.8C64 60.3 60.3 64 55.8 64Z" fill="#327FEB"/>
<path d="M43.2141 24.3575C43.9798 23.496 44.3627 22.4431 44.3627 21.2945C44.3627 18.8058 42.3526 16.7 39.7682 16.7H20.9116C19.8587 16.7 18.9972 17.0828 18.3272 17.7529C17.6571 18.4229 17.2743 19.2844 17.2743 20.3373C17.2743 22.3474 18.9015 23.9746 20.9116 23.9746H24.2617C27.4205 23.9746 29.0477 27.7076 26.9419 30.1006L17.8486 40.3425C17.0828 41.204 16.7 42.2569 16.7 43.4055C16.7 45.8942 18.71 48 21.2945 48H38.811C38.0452 47.0428 37.5667 45.7027 37.5667 44.3627C37.5667 43.0226 38.0452 41.6826 38.811 40.7254H36.8966C33.7379 40.7254 32.015 36.9923 34.1208 34.5994L43.2141 24.3575Z" fill="white"/>
<path d="M44.3627 48C46.3715 48 48 46.3716 48 44.3627C48 42.3539 46.3715 40.7254 44.3627 40.7254C42.3538 40.7254 40.7253 42.3539 40.7253 44.3627C40.7253 46.3716 42.3538 48 44.3627 48Z" fill="white"/>
</svg>
